# xmcd
#
# Track frame offsets:
#	150
#	11870
#	21807
#	32970
#	45863
#	60982
#	69198
#	81760
#	90247
#	102311
#	113433
#	123965
#	136570
#	146201
#	156953
#	165712
#	179369
#	190887
#	203253
#	216066
#
# Disc length: 3012 seconds
#
# Revision: 1
# Processed by: cddbd v1.4PL0 Copyright (c) Steve Scherf et al.
# Submitted via: audiograbber 1.81.03
#
DISCID=f80bc214
DTITLE=Dolly Parton - 20 GREATEST HITS PORTER and DOLLY
DYEAR=1900
DGENRE=country
TTITLE0=HOLDING ON TO NOTHIN
TTITLE1=JUST BETWEEN YOU AND ME
TTITLE2=PLEASE DON'T STOP LOVING ME
TTITLE3=IF TEAR DROPS WERE PENNIES
TTITLE4=JUST SOMEONE I USED TO KNOW
TTITLE5=WE'LL GET AHEAD SOMEDAY
TTITLE6=DADDY WAS AN OLD TIME PREACHER MAN
TTITLE7=IS FOREVER LONGER THAN ALWAYS
TTITLE8=IF YOU GO, I'LL FOLLOW YOU
TTITLE9=FORTY MILES FROM POPLAR BLUFF
TTITLE10=MAKING PLANS - WITH PORTER WAGO
TTITLE11=THE LAST THING ON MY MIND
TTITLE12=BETTER MOVE IT ON HOME
TTITLE13=YOURS LOVE
TTITLE14=TOMORROW IS FOREVER
TTITLE15=LOST FOREVER IN YOUR KISS
TTITLE16=BURNING THE MIDNIGHT OIL
TTITLE17=JEANNIE'S AFRAID OF THE DARK
TTITLE18=BEFORE I MET YOU
TTITLE19=SILVER SANDALS
EXTD=
EXTT0=
EXTT1=
EXTT2=
EXTT3=
EXTT4=
EXTT5=
EXTT6=
EXTT7=
EXTT8=
EXTT9=
EXTT10=
EXTT11=
EXTT12=
EXTT13=
EXTT14=
EXTT15=
EXTT16=
EXTT17=
EXTT18=
EXTT19=
PLAYORDER=
